<svg width="45" height="36" viewBox="0 0 45 36" fill="none" xmlns="http://www.w3.org/2000/svg">
<path d="M14.647 33V29.6667H6.64697C5.54697 29.6667 4.60531 29.3403 3.82197 28.6875C3.03864 28.0347 2.64697 27.25 2.64697 26.3333V6.33333C2.64697 5.41667 3.03864 4.63194 3.82197 3.97917C4.60531 3.32639 5.54697 3 6.64697 3H38.647C39.747 3 40.6886 3.32639 41.472 3.97917C42.2553 4.63194 42.647 5.41667 42.647 6.33333V26.3333C42.647 27.25 42.2553 28.0347 41.472 28.6875C40.6886 29.3403 39.747 29.6667 38.647 29.6667H30.647V33H14.647ZM6.64697 26.3333H38.647V6.33333H6.64697V26.3333Z" fill="white"/>
<path d="M23.512 18.12C23.184 18.12 22.888 18.036 22.624 17.868V19.788L24.448 20.268L24.064 21.048H19.516V20.376L20.584 19.476V13.704L19.516 13.032V12.36L22.012 11.304L22.48 12.708L23.98 11.508C24.236 11.444 24.528 11.412 24.856 11.412C25.344 11.412 25.784 11.552 26.176 11.832C26.576 12.104 26.884 12.48 27.1 12.96C27.324 13.44 27.436 13.972 27.436 14.556C27.436 15.188 27.232 15.78 26.824 16.332C26.416 16.876 25.904 17.312 25.288 17.64C24.68 17.96 24.092 18.12 23.524 18.12H23.512ZM24.088 13.08C23.824 13.08 23.572 13.112 23.332 13.176C23.1 13.24 22.86 13.356 22.612 13.524V15.42C22.612 15.796 22.748 16.112 23.02 16.368C23.3 16.616 23.696 16.74 24.208 16.74C24.552 16.74 24.812 16.604 24.988 16.332C25.172 16.06 25.264 15.66 25.264 15.132C25.264 14.532 25.164 14.04 24.964 13.656C24.764 13.272 24.476 13.08 24.1 13.08H24.088Z" fill="white"/>
</svg>
