<svg width="41" height="42" viewBox="0 0 41 42" fill="none" xmlns="http://www.w3.org/2000/svg">
<mask id="mask0_229_157" style="mask-type:luminance" maskUnits="userSpaceOnUse" x="0" y="0" width="41" height="42">
<path d="M41 0.689941H0V41.6899H41V0.689941Z" fill="white"/>
</mask>
<g mask="url(#mask0_229_157)">
<path d="M20.7939 40.4607C31.2874 40.4607 39.7939 31.9541 39.7939 21.4607C39.7939 10.9673 31.2874 2.46069 20.7939 2.46069C10.3005 2.46069 1.79395 10.9673 1.79395 21.4607C1.79395 31.9541 10.3005 40.4607 20.7939 40.4607Z" stroke="white" stroke-width="2"/>
<path d="M24.3845 27.2588V25.7958C24.3845 25.0198 24.0818 24.2756 23.5431 23.7269C23.0044 23.1781 22.2737 22.8699 21.5118 22.8699H15.7663C15.0044 22.8699 14.2737 23.1781 13.735 23.7269C13.1962 24.2756 12.8936 25.0198 12.8936 25.7958V27.2588" stroke="white" stroke-width="2" stroke-linecap="round" stroke-linejoin="round"/>
<path d="M18.6384 20.1607C20.2249 20.1607 21.5111 18.8847 21.5111 17.3107C21.5111 15.7366 20.2249 14.4607 18.6384 14.4607C17.0518 14.4607 15.7656 15.7366 15.7656 17.3107C15.7656 18.8847 17.0518 20.1607 18.6384 20.1607Z" stroke="white" stroke-width="2" stroke-linecap="round" stroke-linejoin="round"/>
<path d="M28.6936 27.6274V26.1644C28.6931 25.5161 28.4813 24.8863 28.0913 24.3739C27.7014 23.8615 27.1554 23.4956 26.5391 23.3335" stroke="white" stroke-width="2" stroke-linecap="round" stroke-linejoin="round"/>
<path d="M23.666 14.5557C24.284 14.7149 24.8317 15.0764 25.2228 15.5834C25.6139 16.0904 25.8262 16.7139 25.8262 17.3557C25.8262 17.9975 25.6139 18.621 25.2228 19.1279C24.8317 19.6349 24.284 19.9965 23.666 20.1557" stroke="white" stroke-width="2" stroke-linecap="round" stroke-linejoin="round"/>
</g>
</svg>
