<svg width="17" height="16" viewBox="0 0 17 16" fill="none" xmlns="http://www.w3.org/2000/svg">
<path d="M13.1878 9.38336L10.6944 8.13664C10.6453 8.11216 10.5906 8.10104 10.5359 8.10448C10.4812 8.10792 10.4283 8.12568 10.3827 8.15608L9.08606 9.02104C8.3733 8.6792 7.79852 8.1044 7.4567 7.39167L8.32164 6.09505C8.35201 6.0494 8.3698 5.99654 8.37323 5.94182C8.37664 5.8871 8.36557 5.83244 8.34112 5.78336L7.09436 3.28986C7.0685 3.23782 7.0286 3.19403 6.97917 3.16346C6.92974 3.1329 6.87274 3.11676 6.81462 3.11687C6.07064 3.11687 5.35713 3.41242 4.83106 3.9385C4.30498 4.46457 4.00944 5.17808 4.00944 5.92206C4.01129 7.65745 4.70149 9.3212 5.9286 10.5483C7.15571 11.7754 8.8195 12.4657 10.5549 12.4675C11.2989 12.4675 12.0124 12.1719 12.5385 11.6458C13.0645 11.1198 13.3601 10.4063 13.3601 9.66232C13.3601 9.6044 13.344 9.5476 13.3136 9.4984C13.2832 9.44912 13.2397 9.40928 13.1878 9.38336ZM10.5549 11.8442C8.98478 11.8425 7.47941 11.218 6.36916 10.1078C5.25892 8.99752 4.63446 7.49218 4.63281 5.92206C4.63272 5.37599 4.8374 4.84974 5.20644 4.44723C5.57547 4.04473 6.08202 3.79524 6.62605 3.74804L7.70137 5.89946L6.84424 7.18829C6.81567 7.23082 6.79802 7.27972 6.79285 7.33069C6.78769 7.38166 6.79516 7.43311 6.81462 7.4805C7.22874 8.46504 8.01193 9.24816 8.99646 9.66232C9.0439 9.682 9.09542 9.68968 9.14654 9.68464C9.19766 9.6796 9.24678 9.66208 9.28942 9.63352L10.5782 8.77632L12.7297 9.85168C12.6823 10.3957 12.4326 10.9022 12.03 11.271C11.6273 11.6399 11.1009 11.8444 10.5549 11.8442ZM8.68478 1.34622e-07C7.3282 -0.000251993 5.99508 0.353647 4.81726 1.02669C3.63945 1.69974 2.65775 2.6686 1.96926 3.83746C1.28078 5.00632 0.909368 6.33466 0.891769 7.6911C0.874171 9.04752 1.21099 10.385 1.86892 11.5714L0.941652 14.3524C0.886708 14.5172 0.878735 14.694 0.918625 14.863C0.958516 15.0321 1.04469 15.1866 1.1675 15.3094C1.29031 15.4322 1.44489 15.5184 1.61392 15.5583C1.78295 15.5982 1.95976 15.5902 2.12451 15.5353L4.90554 14.608C5.94584 15.1844 7.10428 15.515 8.29211 15.5746C9.4799 15.6342 10.6657 15.421 11.7584 14.9514C12.851 14.4819 13.8218 13.7685 14.5962 12.8658C15.3706 11.9632 15.9281 10.8953 16.226 9.74384C16.5238 8.5924 16.5542 7.3881 16.3147 6.22314C16.0753 5.05818 15.5723 3.9635 14.8443 3.02297C14.1164 2.08243 13.1829 1.32101 12.1152 0.797021C11.0475 0.273035 9.87406 0.000398986 8.68478 1.34622e-07ZM8.68478 14.961C7.42434 14.9614 6.1861 14.6294 5.09489 13.9986C5.04747 13.9714 4.99376 13.9569 4.93904 13.9566C4.90538 13.9566 4.87195 13.9621 4.84008 13.973L1.92736 14.9438C1.87244 14.9622 1.81352 14.9648 1.75717 14.9515C1.70083 14.9382 1.6493 14.9095 1.60836 14.8686C1.56743 14.8276 1.5387 14.7761 1.5254 14.7198C1.51211 14.6634 1.51476 14.6045 1.53308 14.5496L2.50399 11.6369C2.51799 11.595 2.52294 11.5506 2.51851 11.5067C2.51408 11.4627 2.50036 11.4202 2.47827 11.3821C1.68792 10.0158 1.3705 8.42704 1.57528 6.86209C1.78004 5.29711 2.49556 3.84346 3.61081 2.72663C4.72607 1.60982 6.17872 0.892256 7.7434 0.685282C9.30806 0.478308 10.8973 0.793488 12.2646 1.58193C13.6319 2.37036 14.7008 3.58798 15.3054 5.0459C15.9101 6.5038 16.0166 8.12048 15.6087 9.6452C15.2007 11.1698 14.301 12.5173 13.0491 13.4784C11.7972 14.4396 10.2631 14.9607 8.68478 14.961Z" fill="#082C15"/>
</svg>
