<svg width="41" height="42" viewBox="0 0 41 42" fill="none" xmlns="http://www.w3.org/2000/svg">
<mask id="mask0_229_12" style="mask-type:luminance" maskUnits="userSpaceOnUse" x="0" y="0" width="41" height="42">
<path d="M41 0.689941H0V41.6899H41V0.689941Z" fill="white"/>
</mask>
<g mask="url(#mask0_229_12)">
<path d="M21 40.5C31.4934 40.5 40 31.9934 40 21.5C40 11.0066 31.4934 2.5 21 2.5C10.5066 2.5 2 11.0066 2 21.5C2 31.9934 10.5066 40.5 21 40.5Z" stroke="white" stroke-width="2"/>
<path d="M18.298 12.5H12.9C12.403 12.5 12 12.903 12 13.4V18.798C12 19.295 12.403 19.698 12.9 19.698H18.298C18.795 19.698 19.198 19.295 19.198 18.798V13.4C19.198 12.903 18.795 12.5 18.298 12.5Z" stroke="white" stroke-width="1.43945" stroke-linecap="round" stroke-linejoin="round"/>
<path d="M29.0939 12.5H23.6959C23.1989 12.5 22.7959 12.903 22.7959 13.4V18.798C22.7959 19.295 23.1989 19.698 23.6959 19.698H29.0939C29.5909 19.698 29.9939 19.295 29.9939 18.798V13.4C29.9939 12.903 29.5909 12.5 29.0939 12.5Z" stroke="white" stroke-width="1.43945" stroke-linecap="round" stroke-linejoin="round"/>
<path d="M18.298 23.2959H12.9C12.403 23.2959 12 23.6989 12 24.1959V29.5939C12 30.0909 12.403 30.4939 12.9 30.4939H18.298C18.795 30.4939 19.198 30.0909 19.198 29.5939V24.1959C19.198 23.6989 18.795 23.2959 18.298 23.2959Z" stroke="white" stroke-width="1.43945" stroke-linecap="round" stroke-linejoin="round"/>
<path d="M29.0939 23.2959H23.6959C23.1989 23.2959 22.7959 23.6989 22.7959 24.1959V29.5939C22.7959 30.0909 23.1989 30.4939 23.6959 30.4939H29.0939C29.5909 30.4939 29.9939 30.0909 29.9939 29.5939V24.1959C29.9939 23.6989 29.5909 23.2959 29.0939 23.2959Z" stroke="white" stroke-width="1.43945" stroke-linecap="round" stroke-linejoin="round"/>
</g>
</svg>
