<svg width="594" height="451" viewBox="0 0 594 451" fill="none" xmlns="http://www.w3.org/2000/svg">
<g clip-path="url(#clip0_155_94)">
<path d="M126.43 345.552L153.901 360.52L126.43 375.608L111.401 403.02L96.3732 375.608L68.9017 360.52L96.3732 345.552L111.401 318.021L126.43 345.552Z" fill="white" stroke="white" stroke-miterlimit="10"/>
</g>
<path d="M345.842 137.187C414.282 174.937 473.015 214.935 512.647 249.077C532.467 266.151 547.489 281.742 556.563 294.842C561.1 301.393 564.133 307.297 565.545 312.433C566.956 317.568 566.736 321.89 564.837 325.333C562.937 328.777 559.399 331.268 554.304 332.813C549.206 334.359 542.594 334.943 534.633 334.6C518.712 333.913 497.511 329.524 472.497 321.868C422.476 306.558 357.314 278.216 288.875 240.465C220.435 202.715 161.701 162.717 122.069 128.575C102.25 111.501 87.2277 95.9098 78.1541 82.8102C73.6167 76.2595 70.5831 70.3547 69.1713 65.2182C67.7602 60.0844 67.9798 55.7628 69.8791 52.319C71.7787 48.8752 75.3172 46.3836 80.4126 44.8385C85.5103 43.2927 92.123 42.7087 100.084 43.0521C116.005 43.739 137.206 48.1281 162.22 55.784C212.24 71.0937 277.403 99.4361 345.842 137.187Z" stroke="black"/>
<path d="M325.612 173.861C394.051 211.611 452.784 251.609 492.417 285.751C512.236 302.825 527.259 318.416 536.332 331.516C540.87 338.066 543.902 343.971 545.314 349.107C546.726 354.241 546.506 358.563 544.606 362.007C542.706 365.451 539.168 367.942 534.073 369.487C528.975 371.033 522.363 371.617 514.402 371.274C498.482 370.587 477.28 366.198 452.266 358.542C402.246 343.232 337.083 314.89 268.644 277.139C200.205 239.389 141.471 199.391 101.838 165.249C82.0193 148.175 66.9972 132.584 57.9236 119.484C53.3862 112.933 50.3527 107.029 48.9408 101.892C47.5297 96.7582 47.7493 92.4366 49.6487 88.9929C51.5482 85.5491 55.0868 83.0574 60.1821 81.5123C65.2799 79.9665 71.8926 79.3825 79.8539 79.726C95.7742 80.4128 116.975 84.8019 141.989 92.4578C192.01 107.768 257.172 136.11 325.612 173.861Z" stroke="black"/>
<path d="M305.383 210.535C373.823 248.285 432.556 288.283 472.188 322.425C492.008 339.499 507.03 355.09 516.104 368.19C520.641 374.741 523.674 380.645 525.086 385.782C526.497 390.916 526.277 395.238 524.378 398.682C522.478 402.125 518.94 404.616 513.845 406.161C508.747 407.707 502.135 408.292 494.174 407.948C478.253 407.261 457.052 402.872 432.038 395.216C382.017 379.906 316.855 351.564 248.416 313.814C179.976 276.063 121.242 236.065 81.6098 201.923C61.7908 184.849 46.7687 169.258 37.6951 156.158C33.1577 149.608 30.1242 143.703 28.7123 138.566C27.3012 133.433 27.5208 129.111 29.4201 125.667C31.3197 122.223 34.8583 119.732 39.9536 118.187C45.0514 116.641 51.6641 116.057 59.6253 116.4C75.5457 117.087 96.7469 121.476 121.761 129.132C171.781 144.442 236.944 172.784 305.383 210.535Z" stroke="black"/>
<circle cx="132.5" cy="135.595" r="13.5" fill="#C91517"/>
<circle cx="421.257" cy="371" r="10" fill="#C91517"/>
<circle cx="88.5" cy="100.595" r="20.5" fill="white"/>
<path d="M284.424 378.788C278.922 380.668 272.634 376.942 270.447 370.48L236.409 270.756L256.299 263.952L290.37 363.814C292.557 370.207 289.891 376.908 284.424 378.788Z" fill="black"/>
<path d="M281.45 380.019C279.844 380.019 278.204 379.643 276.632 378.856C273.454 377.284 270.925 374.344 269.695 370.72L235.657 270.995C235.521 270.619 235.726 270.174 236.136 270.038L256.025 263.234C256.23 263.166 256.435 263.166 256.606 263.268C256.777 263.371 256.914 263.508 256.982 263.713L291.053 363.575C293.343 370.344 290.472 377.489 284.628 379.506C283.637 379.848 282.544 380.019 281.45 380.019ZM237.366 271.234L271.164 370.241C272.258 373.489 274.513 376.156 277.315 377.523C279.571 378.617 281.997 378.822 284.184 378.07C289.242 376.327 291.702 370.036 289.652 364.053L255.82 264.909L237.366 271.234Z" fill="black"/>
<path d="M252.778 177.868L188.429 223.782L163.379 249.799L153.537 267.2L153.503 267.337C151.555 270.345 152.683 277.285 156.34 284.362C159.928 291.336 164.986 296.191 168.54 296.464L168.437 296.533L187.335 298.584L222.705 292.943L297.785 266.072L391.113 282.072L391.763 282.106C368.32 277.73 336.675 246.38 313.676 202.039C290.711 157.732 283.398 113.937 293.479 92.3309H293.445L253.291 176.774L252.778 177.868Z" fill="#C91517"/>
<path d="M407.273 280.176C430.338 268.193 425.878 213.868 397.311 158.837C368.744 103.807 326.888 68.9103 303.822 80.8934C280.757 92.8766 285.217 147.202 313.784 202.232C342.351 257.262 384.208 292.159 407.273 280.176Z" fill="white"/>
<path d="M397.129 283.302C387.082 283.302 374.984 277.696 361.964 266.79C344.228 251.952 326.833 229.081 312.993 202.346C292.044 161.868 283.398 120.365 290.985 96.6044C293.514 88.6729 297.751 83.1346 303.527 80.1603C315.009 74.28 331.173 79.2714 349.08 94.2455C366.816 109.083 384.211 131.954 398.051 158.689C419.034 199.167 427.68 240.671 420.059 264.431C417.53 272.362 413.293 277.901 407.517 280.875C404.408 282.516 400.922 283.302 397.129 283.302ZM313.984 79.2714C310.464 79.2714 307.183 79.9893 304.244 81.5278C298.811 84.2969 294.847 89.5618 292.454 97.1173C284.97 120.536 293.582 161.595 314.36 201.731C342.656 256.328 384.143 291.268 406.868 279.61C412.302 276.841 416.266 271.576 418.658 264.021C426.142 240.602 417.53 199.543 396.753 159.407C372.113 111.886 337.53 79.2714 313.984 79.2714Z" fill="black"/>
<path d="M397.128 283.302C387.081 283.302 374.984 277.696 361.964 266.79C344.227 251.952 326.833 229.081 312.993 202.346C292.044 161.868 283.398 120.365 290.985 96.6045C293.514 88.673 297.751 83.1346 303.526 80.1603C311.216 76.1945 321.263 77.186 332.574 82.9978C343.407 88.5704 355.129 98.4506 366.543 111.544C366.816 111.852 366.782 112.331 366.475 112.604C366.167 112.878 365.688 112.844 365.415 112.536C342.245 85.938 318.802 74.0407 304.244 81.5278C298.81 84.297 294.846 89.5618 292.454 97.1173C284.97 120.536 293.582 161.595 314.36 201.731C338.965 249.217 373.583 281.867 397.094 281.867C400.614 281.867 403.895 281.149 406.834 279.61C412.267 276.841 416.231 271.576 418.624 264.021C426.108 240.602 417.496 199.543 396.718 159.407C390.533 147.441 383.561 136.194 376.077 125.972C375.838 125.63 375.906 125.151 376.248 124.912C376.59 124.672 377.068 124.741 377.308 125.083C384.86 135.373 391.831 146.689 398.085 158.723C419.034 199.167 427.68 240.671 420.059 264.431C417.53 272.362 413.293 277.901 407.517 280.875C404.407 282.516 400.922 283.302 397.128 283.302Z" fill="black"/>
<path d="M354.939 210.123C360.282 207.347 359.254 194.773 352.643 182.037C346.032 169.302 336.341 161.228 330.998 164.004C325.654 166.78 326.682 179.355 333.293 192.09C339.904 204.826 349.595 212.899 354.939 210.123Z" fill="#C91517"/>
<path d="M352.6 211.44C346.723 211.44 338.521 203.851 332.609 192.398C327.688 182.894 325.672 173.116 327.483 167.475C328.132 165.492 329.191 164.091 330.661 163.339C336.47 160.364 346.415 168.467 353.318 181.766C358.239 191.27 360.255 201.047 358.444 206.688C357.795 208.671 356.735 210.073 355.266 210.825C354.446 211.235 353.557 211.44 352.6 211.44ZM333.326 164.193C332.609 164.193 331.925 164.33 331.344 164.638C330.217 165.219 329.396 166.313 328.884 167.92C327.209 173.185 329.157 182.552 333.907 191.714C340.195 203.851 349.662 212.022 354.548 209.492C355.676 208.911 356.496 207.817 357.009 206.21C358.683 200.911 356.701 191.577 351.985 182.415C346.449 171.783 338.521 164.193 333.326 164.193Z" fill="#C91517"/>
<path d="M391.934 270.55C383.118 270.55 372.524 265.627 361.11 256.089C345.595 243.098 330.353 223.064 318.256 199.68C299.905 164.261 292.352 127.92 298.982 107.1C301.203 100.126 304.928 95.271 310.02 92.6386C321.707 86.6558 338.897 93.5616 357.214 111.578C357.521 111.886 357.521 112.331 357.214 112.638C356.906 112.946 356.462 112.946 356.155 112.638C338.316 95.1001 321.742 88.2626 310.703 93.9719C305.987 96.3992 302.536 100.946 300.417 107.544C293.89 127.988 301.408 163.885 319.589 198.996C341.084 240.534 371.328 269.046 391.9 269.046C394.976 269.046 397.812 268.397 400.41 267.097C405.126 264.67 408.577 260.123 410.696 253.525C417.223 233.081 409.705 197.184 391.524 162.073C386.022 151.475 379.871 141.527 373.241 132.535C373.002 132.194 373.071 131.715 373.412 131.476C373.754 131.236 374.232 131.305 374.472 131.647C381.17 140.74 387.355 150.723 392.891 161.39C411.243 196.808 418.795 233.149 412.165 253.969C409.944 260.944 406.219 265.798 401.127 268.431C398.325 269.832 395.249 270.55 391.934 270.55Z" fill="black"/>
<path d="M187.37 299.302C187.336 299.302 187.302 299.302 187.302 299.302L168.404 297.251C168.301 297.251 168.199 297.217 168.096 297.148C164.2 296.533 159.279 291.61 155.691 284.704C151.864 277.422 150.736 270.311 152.821 266.961L152.855 266.858L162.697 249.423C162.731 249.354 162.765 249.32 162.799 249.286L187.849 223.269C187.883 223.235 187.917 223.201 187.951 223.167L252.129 177.355L292.728 91.9892C292.83 91.8183 292.967 91.6815 293.172 91.6131C293.377 91.5448 293.582 91.5448 293.753 91.6473C294.129 91.8183 294.3 92.2627 294.129 92.6388C283.843 114.69 291.976 158.518 314.326 201.663C336.71 244.876 367.91 276.875 391.934 281.285C392.31 281.354 392.584 281.696 392.549 282.106C392.515 282.482 392.174 282.755 391.798 282.79L391.148 282.755C391.114 282.755 391.08 282.755 391.046 282.755L297.888 266.79L222.979 293.593C222.945 293.593 222.877 293.627 222.843 293.627L187.473 299.268C187.439 299.302 187.404 299.302 187.37 299.302ZM168.951 295.815L187.37 297.798L222.569 292.157L297.615 265.32C297.751 265.286 297.854 265.251 297.991 265.286L381.853 279.644C359.196 269.696 332.711 240.329 313.061 202.381C293.548 164.706 284.834 126.45 289.618 102.28L253.462 178.176C253.394 178.278 253.326 178.381 253.223 178.449L188.942 224.363L163.995 250.243L154.153 267.679C154.153 267.713 154.119 267.747 154.119 267.747C152.342 270.516 153.538 277.354 156.99 284.02C160.373 290.55 165.26 295.473 168.609 295.713C168.746 295.713 168.848 295.747 168.951 295.815Z" fill="black"/>
<path d="M252.88 177.595L293.444 92.2968H293.478C283.397 113.903 290.744 157.698 313.675 202.005C336.674 246.38 368.319 277.73 391.83 282.037L391.181 282.003L297.989 266.038L295.836 265.662C285.003 263.747 270.548 249.662 260.193 229.56C249.565 208.945 247.685 188.398 252.401 178.62L252.88 177.595Z" fill="white"/>
<path d="M391.831 282.79C391.797 282.79 391.831 282.79 391.831 282.79L391.147 282.755C391.113 282.755 391.079 282.755 391.045 282.755L297.853 266.79L295.7 266.414C284.252 264.397 269.728 249.73 259.51 229.936C247.925 207.44 247.344 187.406 251.718 178.313L252.231 177.287L292.795 92.0233C292.898 91.8524 293.034 91.7156 293.239 91.6473C293.444 91.5789 293.649 91.5789 293.82 91.6815C294.196 91.8524 294.367 92.2968 294.196 92.6729C283.91 114.724 292.043 158.552 314.393 201.697C336.777 244.91 367.977 276.909 392.002 281.32C392.378 281.388 392.651 281.73 392.617 282.14C392.514 282.482 392.207 282.79 391.831 282.79ZM289.549 102.28L253.564 177.937L253.051 178.962C248.711 187.988 249.975 208.158 260.843 229.218C270.856 248.636 284.969 262.995 295.973 264.91L298.126 265.286L381.818 279.644C359.161 269.696 332.676 240.329 313.026 202.381C293.513 164.706 284.798 126.45 289.549 102.28Z" fill="black"/>
<path d="M186.344 299.2C186.31 299.2 186.276 299.2 186.276 299.2L168.369 297.285C168.267 297.285 168.164 297.251 168.062 297.183C164.166 296.567 159.245 291.644 155.656 284.738C151.863 277.422 150.735 270.311 152.82 266.961L152.854 266.858L162.696 249.423C162.901 249.046 163.346 248.944 163.721 249.149C164.097 249.354 164.2 249.799 163.995 250.175L154.153 267.679C154.153 267.713 154.119 267.747 154.119 267.747C152.342 270.516 153.538 277.354 156.989 284.02C160.372 290.55 165.259 295.473 168.608 295.712C168.711 295.712 168.848 295.747 168.916 295.815L186.413 297.695C186.823 297.73 187.13 298.106 187.062 298.516C187.028 298.892 186.72 299.2 186.344 299.2Z" fill="black"/>
<path d="M187.54 298.448C181.731 298.037 173.597 289.798 167.685 278.414C161.432 266.345 159.962 253.867 163.79 249.423L153.572 267.2L153.503 267.337C151.555 270.345 152.683 277.285 156.34 284.362C159.928 291.337 164.986 296.191 168.54 296.465L168.437 296.533L187.54 298.448Z" fill="white"/>
<path d="M187.541 299.2C187.506 299.2 187.506 299.2 187.472 299.2C187.336 299.2 187.165 299.165 187.028 299.165L168.369 297.285C168.267 297.285 168.164 297.251 168.062 297.183C164.166 296.567 159.245 291.644 155.656 284.738C151.863 277.422 150.735 270.311 152.82 266.961L152.854 266.858L161.842 251.2C162.184 250.311 162.628 249.525 163.175 248.876C163.414 248.568 163.858 248.534 164.166 248.739C164.473 248.978 164.576 249.388 164.371 249.73L163.106 251.884C161.09 257.32 163.072 267.986 168.267 277.969C173.905 288.875 181.594 296.841 187.096 297.559L187.506 297.593C187.916 297.627 188.224 298.003 188.19 298.413C188.224 298.892 187.916 299.2 187.541 299.2ZM168.916 295.815L181.97 297.148C176.947 293.935 171.411 287.302 167.002 278.755C162.73 270.516 160.612 261.969 160.953 255.816L154.153 267.679C154.153 267.713 154.119 267.747 154.119 267.747C152.342 270.516 153.538 277.354 156.989 284.02C160.372 290.55 165.259 295.473 168.608 295.712C168.711 295.712 168.848 295.747 168.916 295.815Z" fill="black"/>
<path d="M221.44 293.08L222.944 292.772C214.811 294.482 201.961 282.174 192.905 264.704C183.644 246.858 181.901 229.047 188.463 223.782L187.608 224.637L163.858 249.32C159.962 253.696 161.397 266.243 167.685 278.379C173.734 290.071 182.311 298.413 188.155 298.379L221.44 293.08Z" fill="black"/>
<path d="M188.122 299.165C181.902 299.165 173.256 290.789 167.002 278.755C160.646 266.448 159.04 253.593 163.277 248.841L186.584 224.637C186.994 224.09 187.472 223.611 187.985 223.201C188.293 222.961 188.737 222.996 189.01 223.269C189.284 223.577 189.284 224.021 189.01 224.295L187.677 225.696C182.927 232.055 185.285 248.329 193.589 264.363C202.543 281.661 215.051 293.524 222.705 292.089L222.808 292.054C223.218 291.986 223.594 292.225 223.697 292.636C223.765 293.046 223.526 293.422 223.116 293.524C223.081 293.524 223.047 293.524 223.013 293.559L221.612 293.832H221.578L188.293 299.131C188.224 299.131 188.156 299.165 188.122 299.165ZM184.602 228.876L164.405 249.867C160.646 254.106 162.355 266.482 168.369 278.072C174.247 289.422 182.551 297.627 188.122 297.661L217.511 292.977C209.583 290.174 199.809 279.61 192.257 265.08C185.08 251.234 182.312 237.149 184.602 228.876Z" fill="black"/>
<path d="M331.003 163.988C325.637 166.723 326.423 179.407 333.258 192.056C344.706 213.218 353.831 210.722 354.89 210.346C354.924 210.346 354.924 210.38 354.89 210.38L335.24 226.209C329.465 218.107 323.963 209.081 318.905 199.338C314.087 190.005 310.02 180.706 306.808 171.68L331.003 163.988Z" fill="black"/>
<path d="M335.24 226.961C335.206 226.961 335.172 226.961 335.138 226.961C334.933 226.927 334.762 226.825 334.625 226.654C328.713 218.346 323.211 209.252 318.256 199.714C313.506 190.552 309.405 181.219 306.124 171.988C306.056 171.783 306.056 171.578 306.158 171.407C306.261 171.236 306.397 171.099 306.602 171.031L330.797 163.338C331.173 163.236 331.583 163.407 331.72 163.783C331.857 164.159 331.72 164.569 331.378 164.74C330.217 165.321 329.362 166.484 328.85 168.193C327.175 173.561 329.226 183.065 333.976 191.782C345.15 212.432 353.762 210.073 354.685 209.731C355.027 209.594 355.437 209.765 355.608 210.073C355.779 210.38 355.71 210.825 355.437 211.064L335.719 226.79C335.582 226.893 335.411 226.961 335.24 226.961ZM307.799 172.159C311.045 181.082 315.009 190.107 319.589 198.996C324.373 208.227 329.704 217.013 335.411 225.115L352.464 211.372C348.568 211.201 341.22 208.295 332.609 192.398C327.619 183.201 325.569 173.492 327.38 167.646C327.619 166.894 327.893 166.244 328.234 165.629L307.799 172.159Z" fill="black"/>
<path d="M432.11 115.216C447.733 107.009 453.775 87.74 445.606 72.1778C437.437 56.6156 418.15 50.6533 402.528 58.8606C386.905 67.068 380.862 86.337 389.031 101.899C397.2 117.461 416.487 123.424 432.11 115.216Z" fill="#C91517"/>
<path d="M402.768 79.9891C404.272 77.9379 406.493 76.6729 409.022 76.3994C410.935 76.1943 412.712 76.6045 414.387 77.6302C415.241 78.143 415.993 78.7925 416.711 79.5789C417.223 78.6558 417.839 77.8353 418.556 77.1515C419.957 75.784 421.632 74.9977 423.511 74.7926C426.04 74.5191 428.501 75.2712 430.414 76.9464C432.294 78.5874 433.49 80.9805 433.798 83.6814C434.105 86.4505 433.353 89.1172 431.44 92.0573C429.731 94.6897 427.134 97.4247 424.127 100.638C423.101 101.732 421.939 102.963 420.743 104.262C420.436 104.604 419.992 104.843 419.513 104.878C419.035 104.946 418.59 104.809 418.18 104.536C416.711 103.51 415.31 102.553 414.079 101.732C410.457 99.2709 407.313 97.1512 405.058 94.9632C402.529 92.5359 401.23 90.0744 400.923 87.3052C400.649 84.6044 401.298 82.0062 402.768 79.9891Z" fill="white"/>
<path d="M520.739 116.957C532.177 105.516 532.176 86.965 520.739 75.5232C509.302 64.0815 490.759 64.0815 479.322 75.5232C467.885 86.965 467.885 105.516 479.322 116.957C490.759 128.399 509.302 128.399 520.739 116.957Z" fill="#C91517"/>
<path d="M500.025 126.279C483.485 126.279 469.986 112.809 469.986 96.2285C469.986 79.6817 483.451 66.1776 500.025 66.1776C516.599 66.1776 530.064 79.6475 530.064 96.2285C530.064 112.775 516.599 126.279 500.025 126.279ZM500.025 67.6819C484.305 67.6819 471.49 80.468 471.49 96.2285C471.49 111.955 484.271 124.775 500.025 124.775C515.745 124.775 528.56 111.989 528.56 96.2285C528.56 80.5022 515.779 67.6819 500.025 67.6819Z" fill="#C91517"/>
<path d="M507.953 99.1344C506.313 99.1344 504.877 99.9207 503.921 101.151L494.044 97.2883C494.044 97.1515 494.079 97.049 494.079 96.9122C494.079 96.6729 494.044 96.4336 494.01 96.1943L504.126 91.5106C505.048 92.5704 506.415 93.2542 507.953 93.2884C510.755 93.2884 513.079 90.9978 513.079 88.1602C513.079 85.3227 510.79 82.9979 507.953 82.9979C505.151 82.9979 502.827 85.2885 502.827 88.126C502.827 88.3654 502.861 88.6047 502.895 88.844L492.78 93.5277C491.857 92.4679 490.49 91.7841 488.952 91.7499C486.15 91.7499 483.826 94.0405 483.826 96.878C483.826 99.7156 486.116 102.04 488.952 102.04C490.593 102.04 492.028 101.254 492.985 100.023L502.861 103.886C502.861 104.023 502.827 104.126 502.827 104.263C502.827 107.1 505.117 109.425 507.953 109.425C510.755 109.425 513.079 107.134 513.079 104.297C513.045 101.459 510.755 99.1686 507.953 99.1344Z" fill="black"/>
<path d="M508.341 209.821C521.753 200.508 525.122 182.145 515.867 168.806C506.612 155.466 488.237 152.202 474.825 161.515C461.414 170.827 458.044 189.191 467.299 202.53C476.554 215.869 494.929 219.134 508.341 209.821Z" fill="#C91517"/>
<path d="M484.204 199.68L479.898 176.33C479.693 175.133 480.787 174.142 481.949 174.449L507.408 181.663C508.707 182.039 509.014 183.714 507.955 184.535L486.767 200.671C485.844 201.423 484.443 200.91 484.204 199.68Z" fill="white"/>
<path d="M491.294 305.468C507.856 297.402 514.787 277.514 506.773 261.047C498.76 244.58 478.838 237.77 462.276 245.836C445.714 253.902 438.784 273.79 446.797 290.256C454.81 306.723 474.732 313.534 491.294 305.468Z" fill="#C91517"/>
<path d="M476.616 309.627C473.062 309.627 469.44 309.08 465.92 307.883C457.308 305.011 450.337 298.994 446.304 290.858C442.272 282.755 441.657 273.559 444.561 264.944C450.576 247.2 469.918 237.525 487.723 243.44C496.335 246.311 503.306 252.328 507.339 260.465C511.371 268.567 511.986 277.764 509.082 286.379C504.229 300.601 490.867 309.627 476.616 309.627ZM476.958 243.235C463.323 243.235 450.542 251.85 445.928 265.456C443.16 273.696 443.741 282.482 447.603 290.208C451.465 297.969 458.128 303.746 466.364 306.481C483.383 312.122 501.871 302.892 507.612 285.935C510.38 277.696 509.799 268.909 505.938 261.183C502.076 253.422 495.412 247.645 487.176 244.91C483.793 243.747 480.341 243.235 476.958 243.235Z" fill="black"/>
<path d="M493.773 270.277C493.431 278.584 479.386 298.003 476.037 302.55C475.695 303.029 474.977 302.994 474.67 302.482C472.551 299.063 465.545 287.576 461.889 278.277C460.419 274.585 459.497 271.234 459.599 268.875C459.975 259.439 467.937 252.089 477.369 252.465C486.801 252.91 494.149 260.841 493.773 270.277Z" fill="black"/>
<path d="M482.213 275.134C485.269 272.077 485.269 267.12 482.213 264.063C479.157 261.005 474.202 261.005 471.146 264.063C468.09 267.12 468.09 272.077 471.146 275.134C474.202 278.192 479.157 278.192 482.213 275.134Z" fill="#C91517"/>
<defs>
<clipPath id="clip0_155_94">
<rect width="61.3788" height="61.3788" fill="white" transform="translate(111.401 317.179) rotate(45)"/>
</clipPath>
</defs>
</svg>
